<svg width="208" height="208" viewBox="0 0 208 208" fill="none" xmlns="http://www.w3.org/2000/svg">
<path d="M69.3334 164.667H43.3334V78H69.3334V164.667ZM164.667 164.667H138.667V118.369C138.667 106.305 134.368 100.299 125.849 100.299C119.097 100.299 114.816 103.662 112.667 110.396V164.667H86.6667C86.6667 164.667 87.0134 86.6667 86.6667 78H107.189L108.775 95.3333H109.313C114.643 86.6667 123.162 80.7907 134.845 80.7907C143.728 80.7907 150.913 83.2607 156.399 89.466C161.919 95.68 164.667 104.017 164.667 115.726V164.667Z" fill="url(#paint0_linear_179_265)"/>
<path d="M56.3329 69.3333C63.7519 69.3333 69.7662 63.513 69.7662 56.3333C69.7662 49.1536 63.7519 43.3333 56.3329 43.3333C48.9138 43.3333 42.8995 49.1536 42.8995 56.3333C42.8995 63.513 48.9138 69.3333 56.3329 69.3333Z" fill="url(#paint1_linear_179_265)"/>
<defs>
<linearGradient id="paint0_linear_179_265" x1="104" y1="78" x2="104" y2="164.667" gradientUnits="userSpaceOnUse">
<stop stop-color="#EE157D"/>
<stop offset="1" stop-color="#5B5BA5"/>
</linearGradient>
<linearGradient id="paint1_linear_179_265" x1="56.3329" y1="43.3333" x2="56.3329" y2="69.3333" gradientUnits="userSpaceOnUse">
<stop stop-color="#EE157D"/>
<stop offset="1" stop-color="#5B5BA5"/>
</linearGradient>
</defs>
</svg>
