<svg width="256" height="256" viewBox="0 0 256 256" fill="none" xmlns="http://www.w3.org/2000/svg">
<path d="M235.9 94L135.9 37.3C133.495 35.923 130.771 35.1985 128 35.1985C125.229 35.1985 122.505 35.923 120.1 37.3L20.1 94C18.8546 94.6953 17.8178 95.711 17.0969 96.9418C16.3761 98.1725 15.9973 99.5737 16 101V165C15.9973 166.426 16.3761 167.827 17.0969 169.058C17.8178 170.289 18.8546 171.305 20.1 172L120.1 228.7C122.505 230.077 125.229 230.801 128 230.801C130.771 230.801 133.495 230.077 135.9 228.7L235.9 172C237.145 171.305 238.182 170.289 238.903 169.058C239.624 167.827 240.003 166.426 240 165V101C240.003 99.5737 239.624 98.1725 238.903 96.9418C238.182 95.711 237.145 94.6953 235.9 94ZM224 151.3L191.8 133L224 114.7V151.3ZM175.6 123.8L136 101.3V55.7L215.8 101L175.6 123.8ZM128 150.8L96.6 133L128 115.2L159.4 133L128 150.8ZM120 55.7V101.3L80.4 123.8L40.2 101L120 55.7ZM32 114.7L64.2 133L32 151.3V114.7ZM80.4 142.2L120 164.7V210.3L40.2 165L80.4 142.2ZM136 210.3V164.7L175.6 142.2L215.8 165L136 210.3Z" fill="#07DBF2"/>
</svg>
