<svg width="236" height="238" viewBox="0 0 236 238" fill="none" xmlns="http://www.w3.org/2000/svg">
<path d="M36.5523 121.443C33.8789 121.443 31.3898 119.737 30.5601 117.064C23.7843 95.9065 22.8164 58.5245 37.3359 41.562C34.1093 29.3011 35.907 12.7073 41.8528 3.81123C43.0974 1.96748 45.1255 0.907325 47.3841 0.999513C64.3005 1.73724 75.3169 8.78936 84.9966 15.2425C98.7786 11.6474 112.192 10.4026 128.094 11.2784C132.012 11.5089 135.884 12.3847 139.295 13.1683C142.522 13.9058 145.84 14.6896 147.776 14.5052C149.528 14.3208 152.662 12.2005 155.197 10.449C157.548 8.83568 160.037 7.17631 162.618 6.02396C169.993 2.7974 176.631 1.3224 185.573 0.999743C189.03 0.907556 191.98 3.58076 192.118 7.08412C192.256 10.5875 189.537 13.4909 186.034 13.5833C178.613 13.8599 173.635 14.9201 167.689 17.5474C166.167 18.2388 164.278 19.4833 162.296 20.8661C158.378 23.5396 153.907 26.5818 148.928 27.0427C144.918 27.4115 140.77 26.4896 136.391 25.4294C133.349 24.738 130.168 24.0005 127.357 23.8161C111.823 22.9404 98.9167 24.2771 85.5495 28.1029C83.7979 28.6099 81.9081 28.3333 80.3409 27.2732L78.7737 26.213C70.3386 20.6359 62.3648 15.289 50.7031 13.8601C47.7992 21.2812 47.4307 33.5883 50.3343 40.8711C51.3486 43.3601 50.6111 46.2638 48.583 47.9695C37.1978 57.6492 35.7689 91.8969 42.5447 113.146C43.6049 116.465 41.7611 120.014 38.4424 121.074C37.7971 121.351 37.1517 121.443 36.5525 121.443H36.5523ZM84.4896 183.669C84.0286 183.669 83.5672 183.623 83.1063 183.531C79.6954 182.793 77.575 179.428 78.3125 176.017L78.7274 174.22C80.6633 165.462 82.461 158.41 84.5813 153.155C58.7227 147.762 39.8704 135.455 30.9282 118.032C29.361 114.943 30.5594 111.117 33.6479 109.55C36.7364 107.983 40.562 109.182 42.1292 112.27C50.1956 127.988 69.1862 138.636 95.644 142.277C98.1792 142.646 100.253 144.49 100.899 146.933C101.544 149.422 100.622 152.049 98.5479 153.57C97.2112 154.769 94.7682 159.793 91.0347 176.893L90.6198 178.737C89.9745 181.641 87.3932 183.669 84.4893 183.669H84.4896ZM72.8733 229.809C72.4584 229.809 72.0897 229.763 71.6748 229.671C68.2639 228.979 66.0053 225.799 66.6967 222.388C67.849 216.534 71.9514 214.091 74.3943 212.662C76.0537 211.694 76.5608 211.325 76.8373 210.68C78.2662 207.638 77.8975 199.756 77.5748 193.441C77.4365 190.767 77.2985 188.048 77.2524 185.421C62.6407 187.956 46.7844 188.739 38.3951 174.865C36.7358 172.1 35.6756 169.288 34.7076 166.753C33.6014 163.895 32.6795 161.406 31.1584 159.562C28.9461 156.889 29.3608 152.925 32.0342 150.712C34.7076 148.5 38.6717 148.868 40.8842 151.588C43.6959 155.045 45.1709 158.917 46.4615 162.328C47.2912 164.54 48.0748 166.614 49.135 168.366C53.6522 175.833 63.516 175.372 82.5068 171.546C84.4889 171.132 86.5168 171.731 87.992 173.067C89.467 174.45 90.2045 176.432 89.974 178.414C89.5131 182.424 89.7897 187.679 90.0201 192.749C90.4811 201.645 90.8959 210.034 88.0842 215.981C86.0561 220.267 82.7834 222.203 80.617 223.448C80.0178 223.816 79.0959 224.324 78.9115 224.554C78.4967 227.642 75.8694 229.809 72.8733 229.809ZM164.507 228.61C162.433 228.61 160.451 227.597 159.207 225.753C158.7 224.924 157.962 224.417 156.671 223.541C154.643 222.112 151.878 220.176 149.803 216.166C146.07 208.837 146.669 198.189 147.268 186.942C147.637 180.028 148.005 172.884 147.268 167.26C146.623 162.513 144.963 160.392 142.659 157.442C141.184 155.506 139.478 153.34 138.141 150.482C137.266 148.592 137.404 146.426 138.418 144.628C139.478 142.83 141.322 141.678 143.396 141.54C167.042 139.788 185.71 128.633 194.698 110.979C196.266 107.891 200.045 106.647 203.18 108.214C206.268 109.781 207.512 113.561 205.945 116.695C196.358 135.64 178.059 148.408 154.919 152.786C156.994 155.829 159.022 159.701 159.805 165.647C160.727 172.422 160.312 180.166 159.898 187.633C159.437 196.299 158.93 206.117 161.096 210.45C161.649 211.556 162.341 212.063 163.908 213.169C165.613 214.322 167.918 215.935 169.808 218.839C171.698 221.742 170.868 225.66 167.965 227.55C166.905 228.288 165.706 228.61 164.508 228.61H164.507ZM200.322 120.153C199.769 120.153 199.169 120.061 198.616 119.923C195.251 118.955 193.316 115.498 194.283 112.133C201.244 87.6569 196.496 55.8522 184.327 45.4811C182.345 43.7757 181.608 41.0561 182.484 38.6132C185.434 30.178 183.451 17.5022 180.087 9.85067C178.704 6.6702 180.133 2.9366 183.313 1.55379C186.494 0.170977 190.227 1.59988 191.61 4.78035C195.482 13.5382 198.017 27.3202 195.482 38.7975C210.509 55.3913 213.459 90.7913 206.406 115.59C205.577 118.355 203.088 120.153 200.322 120.153ZM143.719 237.093C142.567 237.093 141.368 236.77 140.308 236.079C139.156 235.341 135.699 233.129 129.292 223.173C126.388 218.655 124.267 196.162 122.977 156.244C122.885 152.787 125.604 149.838 129.061 149.745C132.518 149.653 135.468 152.373 135.561 155.83C136.39 181.965 138.326 211.603 140.078 216.673C144.779 223.956 146.992 225.431 147.084 225.477C149.988 227.367 150.863 231.239 148.974 234.189C147.821 236.079 145.793 237.093 143.719 237.093ZM95.9194 237.093C93.8452 237.093 91.8171 236.079 90.6187 234.189C88.7288 231.285 89.6046 227.367 92.5085 225.477C92.6007 225.431 94.8132 223.956 99.5148 216.673C101.266 211.649 103.156 181.965 104.032 155.83C104.124 152.373 107.074 149.607 110.531 149.745C113.988 149.837 116.754 152.787 116.616 156.244C115.325 196.162 113.205 218.701 110.301 223.173C103.894 233.083 100.437 235.341 99.2843 236.079C98.2702 236.77 97.0718 237.093 95.9194 237.093Z" fill="url(#paint0_linear_179_255)"/>
<defs>
<linearGradient id="paint0_linear_179_255" x1="117.93" y1="0.993958" x2="117.93" y2="237.093" gradientUnits="userSpaceOnUse">
<stop stop-color="#EE157D"/>
<stop offset="1" stop-color="#5A56AF"/>
</linearGradient>
</defs>
</svg>
